<?xml version="1.0" encoding="utf-8"?>
<!-- Generator: Adobe Illustrator 22.1.0, SVG Export Plug-In . SVG Version: 6.00 Build 0)  -->
<svg version="1.1" id="_x36_d8c951e-08f3-4e9b-9bbb-c5bd07483b7d"
	 xmlns="http://www.w3.org/2000/svg" xmlns:xlink="http://www.w3.org/1999/xlink" x="0px" y="0px" viewBox="0 0 1089.1 792"
	 style="enable-background:new 0 0 1089.1 792;" xml:space="preserve">
<style type="text/css">
	.st0{opacity:0.1;fill:#00C9B6;enable-background:new    ;}
	.st1{fill:none;stroke:#535461;stroke-width:2;stroke-miterlimit:10;}
	.st2{fill:#00C9B6;}
	.st3{fill:#FFD037;}
	.st4{fill:none;stroke:#535461;stroke-miterlimit:10;}
	.st5{opacity:0.2;fill:#F5F5F5;enable-background:new    ;}
	.st6{fill:#A8A8A8;}
	.st7{opacity:0.2;enable-background:new    ;}
	.st8{opacity:0.1;enable-background:new    ;}
	.st9{fill:#FC6681;}
	.st10{fill:#FDC2CC;}
	.st11{opacity:5.000000e-02;enable-background:new    ;}
	.st12{fill:#535461;}
	.st13{opacity:0.3;fill:#FFFFFF;enable-background:new    ;}
</style>
<title>exploring</title>
<path class="st0" d="M604.9,382L604.9,382c-26.5,0-52.5,7.4-75.1,21.4C529.2,325.1,465.6,262,387.4,262l0,0c-16.9,0-33.8,3-49.6,8.9
	v-34.5C337.7,157.8,274,94,195.3,94c0,0,0,0,0,0l0,0c-78.7,0-142.4,63.8-142.4,142.4l0,0v378h694.4v-90
	C747.3,445.8,683.5,382,604.9,382L604.9,382z"/>
<path class="st1" d="M766.2,597.5c0,0,20-31.3,22.4-44.7c1.7-8.7,4-17.3,7-25.7"/>
<path class="st2" d="M800.1,553.8l-12.5,1.1C787.5,554.9,794.2,566.4,800.1,553.8z"/>
<path class="st2" d="M778.1,546.8l10,8C788.1,554.8,775.2,560,778.1,546.8z"/>
<path class="st2" d="M801.7,542.8l-11.3,1.5C790.3,544.3,800.3,552.5,801.7,542.8z"/>
<path class="st2" d="M782.9,538.8l7.5,5.2C790.4,544.1,781.3,547.9,782.9,538.8z"/>
<path class="st2" d="M793.2,534c0,0,9.3-2.5,10.6-1.9s0.5,6.4-3.2,6.7S793.2,534,793.2,534z"/>
<path class="st2" d="M786.9,527c0,0,5.9,5.6,6.2,7s-4.8,4.5-7.5,0S786.9,527,786.9,527z"/>
<circle class="st3" cx="797.9" cy="527.5" r="2.7"/>
<circle class="st3" cx="793.1" cy="526.2" r="2.7"/>
<path class="st0" d="M654.4,285.1c-10,10.1-10.6,25.6-10.6,25.6s15.5-0.9,25.5-11s10.6-25.6,10.6-25.6S664.4,275,654.4,285.1z"/>
<path class="st0" d="M569.5,216.1c3.5,13.8,16.5,22.3,16.5,22.3s7.2-13.7,3.7-27.5s-16.5-22.3-16.5-22.3S566,202.4,569.5,216.1z"/>
<path class="st0" d="M750.4,346.9c-10,10.1-10.6,25.6-10.6,25.6s15.5-0.9,25.5-11s10.6-25.6,10.6-25.6S760.3,336.8,750.4,346.9z"/>
<path class="st0" d="M790.2,433.9c-1.2,14.1,8.3,26.5,8.3,26.5s11.3-10.6,12.5-24.8s-8.3-26.5-8.3-26.5S791.4,419.8,790.2,433.9z"/>
<path class="st0" d="M1021.2,368c-1.2,14.1,8.3,26.5,8.3,26.5s11.3-10.6,12.5-24.8s-8.3-26.5-8.3-26.5S1022.3,353.9,1021.2,368z"/>
<path class="st2" d="M64.4,603.9c0,0,444.3-84.7,934,0S-178.9,675.6,64.4,603.9z"/>
<path class="st2" d="M310.7,617.7c0.8,10.1-9.1,17.8-18.5,21.5s-20.2,6-26.7,13.8c-1.8,2-3,4.6-3.2,7.3c-0.3,5.9,5.2,10.4,10.5,13.1
	c15.2,7.5,32.7,8.5,49.4,11.4s34.3,8.9,43.9,22.9c4.4,6.5,6.9,14.3,11.9,20.5c8,9.8,21.7,13.6,34.2,11.9s23.9-8.2,33.7-16.1
	c11-8.9,21.1-20,34.8-23.5c23.6-6.1,45.6,12.1,68.1,21.4c27.2,11.2,58.1,9.3,86.7,2.3c6.4-1.6,12.9-3.5,18.3-7.2
	c6.3-4.3,10.8-10.7,16.7-15.5c14.6-11.9,35.2-12.4,54-12.3l54.7,0.3c10.8,0.1,22.3-0.1,31.4-6c9.3-6.1,14.2-17.7,13.6-28.7
	s-6.1-21.5-13.9-29.4c-17.3-17.6-43.3-22.6-67.8-26C625,583,505.8,584.4,387.1,585.7c-19.9,0.2-39.8,0.4-59.5,3.2
	c-4.9,0.7-25.3,1.7-27.2,6.9C298.6,600.7,310.3,611.7,310.7,617.7z"/>
<ellipse class="st2" cx="172.8" cy="704.9" rx="40.2" ry="6.8"/>
<ellipse class="st2" cx="204.7" cy="761.3" rx="40.2" ry="6.8"/>
<ellipse class="st2" cx="79.8" cy="667.2" rx="26.9" ry="4.5"/>
<ellipse class="st2" cx="299.2" cy="725.5" rx="26.9" ry="4.5"/>
<ellipse class="st2" cx="876.8" cy="687.7" rx="26.9" ry="4.5"/>
<ellipse class="st2" cx="706.8" cy="732.1" rx="26.9" ry="4.5"/>
<ellipse class="st2" cx="991.3" cy="704.9" rx="40.2" ry="6.8"/>
<ellipse class="st2" cx="829.5" cy="743.1" rx="65" ry="11"/>
<ellipse class="st2" cx="522.2" cy="776.7" rx="90.8" ry="15.3"/>
<path class="st2" d="M998.8,471.2c0,0-20.3,20.3-8.8,50.5c11.5,30.2-19.7,80.3-19.7,80.3l1-0.2c41.8-7.4,62.5-55.1,39.3-90.6
	C1001.9,498.1,994.8,482.7,998.8,471.2z"/>
<path class="st4" d="M998.8,471.2c0,0-11.5,24.9,0,45.3c11.5,20.3,2,77.4-28.5,85.6"/>
<path class="st2" d="M1035,553.5c0,0-23.2-3.7-25.3,17.1s-44.6,23.7-44.6,23.7l0.8,0.5c35.1,23,68.6,14.7,63.6-15.9
	C1027.5,567.5,1027.7,556.1,1035,553.5z"/>
<path class="st5" d="M1035,553.5c0,0-23.2-3.7-25.3,17.1s-44.6,23.7-44.6,23.7l0.8,0.5c35.1,23,68.6,14.7,63.6-15.9
	C1027.5,567.5,1027.7,556.1,1035,553.5z"/>
<path class="st4" d="M1035,553.5c0,0-18,4-16.5,20.3s-26.7,36-53.4,20.4"/>
<path class="st1" d="M761.9,573.7c0,0-6.2-21.1,1.2-36.6c3.1-6.5,4.1-13.8,2.7-20.9c-0.7-3.4-1.7-6.6-3-9.8"/>
<path class="st2" d="M767.4,496.6c0,2.6-4.7,10.1-4.7,10.1s-4.7-7.5-4.7-10.1c0-2.6,2.1-4.7,4.7-4.7
	C765.3,491.9,767.4,494,767.4,496.6C767.4,496.6,767.4,496.6,767.4,496.6z"/>
<path class="st2" d="M775.1,510.9c-1.4,2.2-9.4,5.9-9.4,5.9s0.1-8.8,1.5-11c1.3-2.2,4.2-2.9,6.4-1.6s2.9,4.2,1.6,6.4
	C775.2,510.8,775.2,510.8,775.1,510.9L775.1,510.9z"/>
<path class="st2" d="M774.8,535.4c-2.3,1.2-11.1,0.4-11.1,0.4s4.6-7.6,6.9-8.7c2.3-1.2,5.1-0.2,6.3,2.1
	C778,531.4,777.1,534.2,774.8,535.4L774.8,535.4z"/>
<path class="st2" d="M770.4,553.8c-2.1,1.5-10.8,2.2-10.8,2.2s3.2-8.2,5.3-9.8c2-1.6,5-1.3,6.6,0.7c1.6,2,1.3,5-0.7,6.6
	C770.6,553.6,770.5,553.7,770.4,553.8L770.4,553.8z"/>
<path class="st2" d="M755.9,517.3c1.9,1.8,10.5,3.7,10.5,3.7s-2.1-8.6-4-10.4c-1.9-1.7-4.9-1.6-6.6,0.3
	C754.1,512.7,754.1,515.5,755.9,517.3L755.9,517.3z"/>
<path class="st2" d="M751,539c2.3,1.2,11.1,0.4,11.1,0.4s-4.6-7.5-6.9-8.7c-2.3-1.2-5.1-0.4-6.3,1.9s-0.4,5.1,1.9,6.3
	C750.8,538.9,750.9,538.9,751,539L751,539z"/>
<path class="st2" d="M749.1,560.7c2.1,1.5,10.9,2.2,10.9,2.2s-3.2-8.2-5.3-9.8c-2-1.6-5-1.3-6.6,0.7c-1.6,2-1.3,5,0.7,6.6
	C748.9,560.5,749,560.6,749.1,560.7z"/>
<path class="st6" d="M748.4,571.7c0,0,11.3-2.3,14.4-5.3s16.7-8.3,18.2-4.5s20.4,16.6,7.6,18.9s-30.3,3-34,1.5
	S748.4,571.7,748.4,571.7z"/>
<path class="st7" d="M788.5,579.3c-12.9,2.3-30.3,3-34,1.5c-2.9-1.2-4.9-6.7-5.7-9.3l-0.4,0.1c0,0,2.3,9.1,6,10.6s21.2,0.8,34-1.5
	c3.7-0.7,4.8-2.2,4.4-4.1C792.5,577.9,791.2,578.8,788.5,579.3z"/>
<path class="st2" d="M90.5,505.4c15.3,22.6,10.4,103.6,10.4,103.6s-77-25.5-92.4-48.1c-15.6-22.4-10.1-53.3,12.4-68.9
	c22.4-15.6,53.3-10.1,68.9,12.4C90,504.8,90.2,505.1,90.5,505.4z"/>
<path class="st8" d="M90.5,505.4c15.3,22.6,10.4,103.6,10.4,103.6s-77-25.5-92.4-48.1c-15.6-22.4-10.1-53.3,12.4-68.9
	c22.4-15.6,53.3-10.1,68.9,12.4C90,504.8,90.2,505.1,90.5,505.4z"/>
<path class="st4" d="M22,492.3c0,0,57.7,44.6,79.2,116.9"/>
<path class="st2" d="M115.7,547.8c0,0-41-7-12.9,60.9c0,0,28.5-10.9,30.7-37.9c0.9-10.9-6.5-20.7-17.1-22.9L115.7,547.8z"/>
<path class="st4" d="M116.3,547.7c0,0,7.8,37.6-13.6,61"/>
<path class="st2" d="M966.3,546.3c0,0,5.5,7.2-2.5,18s-14.7,20-12,26.8c0,0,12.1-20.2,22-20.4S977.2,558.4,966.3,546.3z"/>
<path class="st8" d="M966.3,546.3c0.5,0.7,0.9,1.5,1.1,2.3c9.6,11.3,14.7,21.8,5.5,22.1c-8.6,0.2-19,15.7-21.4,19.5
	c0.1,0.3,0.2,0.6,0.3,0.9c0,0,12.1-20.2,22-20.4S977.2,558.4,966.3,546.3z"/>
<path class="st3" d="M976.5,555.5c0,2.5-0.3,4.6-0.6,4.6s-0.6-2-0.6-4.6s0.4-1.3,0.7-1.3S976.5,553,976.5,555.5z"/>
<path class="st3" d="M980,558.5c-2.2,1.2-4.2,1.9-4.3,1.6s1.5-1.5,3.7-2.7s1.3-0.3,1.5,0S982.2,557.3,980,558.5z"/>
<path class="st2" d="M937.3,546.3c0,0-5.5,7.2,2.5,18s14.7,20,12,26.8c0,0-12.1-20.2-22-20.4S926.4,558.4,937.3,546.3z"/>
<path class="st8" d="M937.3,546.3c-0.5,0.7-0.9,1.5-1.1,2.3c-9.6,11.3-14.8,21.8-5.5,22.1c8.6,0.2,19,15.7,21.4,19.5
	c-0.1,0.3-0.2,0.6-0.3,0.9c0,0-12.1-20.2-22-20.4S926.4,558.4,937.3,546.3z"/>
<path class="st3" d="M927.1,555.5c0,2.5,0.3,4.6,0.6,4.6s0.6-2,0.6-4.6s-0.3-1.3-0.7-1.3S927.1,553,927.1,555.5z"/>
<path class="st3" d="M923.6,558.5c2.2,1.2,4.2,1.9,4.3,1.6s-1.5-1.5-3.7-2.7s-1.3-0.3-1.5,0S921.4,557.3,923.6,558.5z"/>
<path class="st6" d="M928.8,590.2c0,0,15.4-0.5,20-3.8s23.6-7.2,24.8-2s23.1,26.3,5.7,26.4s-40.3-2.7-44.9-5.5
	S928.8,590.2,928.8,590.2z"/>
<path class="st7" d="M979.6,609c-17.3,0.1-40.3-2.7-44.9-5.5c-3.5-2.1-4.9-9.8-5.4-13.4h-0.5c0,0,1,12.4,5.6,15.2s27.6,5.7,44.9,5.5
	c5,0,6.7-1.8,6.6-4.5C985.3,608,983.4,609,979.6,609z"/>
<path class="st2" d="M1008,693.8c1.8-1.5,3.2-3.5,3.8-5.8c0.5-2.3-0.5-5-2.7-5.9c-2.5-0.9-5.1,0.8-7.1,2.5s-4.3,3.7-6.9,3.3
	c2.7-2.5,4-6.2,3.2-9.8c-0.1-0.7-0.4-1.4-0.9-2c-1.4-1.5-3.8-0.8-5.5,0.3c-5.2,3.7-6.7,10.7-6.7,17.1c-0.5-2.3-0.1-4.7-0.1-7
	s-0.7-5-2.7-6.2c-1.2-0.7-2.6-1-4-1c-2.3-0.1-5,0.2-6.5,1.9c-2,2.1-1.5,5.7,0.2,8s4.3,3.8,6.8,5.4c1.9,1.2,3.6,2.7,4.8,4.6
	c0.1,0.3,0.3,0.5,0.3,0.8h14.7C1002.2,698.4,1005.2,696.3,1008,693.8z"/>
<path class="st2" d="M315.8,714.6c1.8-1.5,3.2-3.5,3.8-5.8c0.5-2.3-0.5-5-2.7-5.9c-2.5-0.9-5.1,0.8-7.1,2.5s-4.3,3.7-6.9,3.3
	c2.7-2.5,4-6.2,3.2-9.8c-0.1-0.7-0.4-1.4-0.9-2c-1.4-1.5-3.8-0.8-5.5,0.3c-5.2,3.7-6.6,10.7-6.7,17.1c-0.5-2.3-0.1-4.7-0.1-7
	s-0.7-5-2.6-6.2c-1.2-0.7-2.6-1-4-0.9c-2.3-0.1-4.9,0.2-6.5,1.9c-2,2.1-1.5,5.7,0.3,8s4.4,3.8,6.8,5.4c1.9,1.2,3.6,2.7,4.8,4.6
	c0.1,0.3,0.3,0.5,0.4,0.8h14.6C310,719.2,313.1,717.1,315.8,714.6z"/>
<path class="st1" d="M216.8,621.5c0,0-14.1-47.7,2.6-82.8c7.1-14.7,9.2-31.3,6.1-47.3c-1.6-7.6-3.8-15-6.7-22.2"/>
<path class="st2" d="M229.2,447c0,5.8-10.6,22.8-10.6,22.8S208,452.8,208,447c0-5.8,4.8-10.6,10.6-10.6
	C224.5,436.4,229.2,441.2,229.2,447z"/>
<path class="st2" d="M246.7,479.4c-3.2,4.9-21.3,13.4-21.3,13.4s0.3-20,3.5-24.9c3.2-4.9,9.7-6.3,14.6-3.1
	C248.5,467.9,249.9,474.5,246.7,479.4L246.7,479.4z"/>
<path class="st2" d="M245.9,534.7c-5.2,2.6-25.1,0.8-25.1,0.8s10.4-17.1,15.6-19.7c5.2-2.7,11.6-0.8,14.3,4.4
	c2.7,5.2,0.8,11.6-4.4,14.3C246.2,534.6,246.1,534.7,245.9,534.7z"/>
<path class="st2" d="M235.9,576.5c-4.7,3.5-24.6,5-24.6,5s7.3-18.6,12-22.1c4.5-3.7,11.2-3,14.9,1.5c3.7,4.5,3,11.2-1.5,14.9
	C236.4,576,236.2,576.2,235.9,576.5L235.9,576.5z"/>
<path class="st2" d="M203.2,493.9c4.2,4.1,23.7,8.3,23.7,8.3s-4.8-19.4-9-23.5c-4.2-4.1-10.9-4-15,0.2
	C198.9,483.1,199,489.8,203.2,493.9L203.2,493.9z"/>
<path class="st2" d="M192.1,542.9c5.2,2.6,25.1,0.8,25.1,0.8s-10.4-17.1-15.6-19.7c-5.2-2.6-11.6-0.5-14.2,4.7
	C184.8,533.9,186.9,540.2,192.1,542.9L192.1,542.9L192.1,542.9z"/>
<path class="st2" d="M187.9,591.9c4.7,3.5,24.7,5.1,24.7,5.1s-7.3-18.6-12-22.1c-4.5-3.7-11.2-3-14.9,1.5c-3.7,4.5-3,11.2,1.5,14.9
	C187.4,591.6,187.6,591.8,187.9,591.9L187.9,591.9z"/>
<path class="st9" d="M229.2,447c0,5.8-10.6,22.8-10.6,22.8S208,452.8,208,447c0-5.8,4.8-10.6,10.6-10.6
	C224.5,436.4,229.2,441.2,229.2,447z"/>
<path class="st9" d="M246.7,479.4c-3.2,4.9-21.3,13.4-21.3,13.4s0.3-20,3.5-24.9c3.2-4.9,9.7-6.3,14.6-3.1
	C248.5,467.9,249.9,474.5,246.7,479.4L246.7,479.4z"/>
<path class="st9" d="M245.9,534.7c-5.2,2.6-25.1,0.8-25.1,0.8s10.4-17.1,15.6-19.7c5.2-2.7,11.6-0.8,14.3,4.4
	c2.7,5.2,0.8,11.6-4.4,14.3C246.2,534.6,246.1,534.7,245.9,534.7z"/>
<path class="st9" d="M235.9,576.5c-4.7,3.5-24.6,5-24.6,5s7.3-18.6,12-22.1c4.5-3.7,11.2-3,14.9,1.5c3.7,4.5,3,11.2-1.5,14.9
	C236.4,576,236.2,576.2,235.9,576.5L235.9,576.5z"/>
<path class="st9" d="M203.2,493.9c4.2,4.1,23.7,8.3,23.7,8.3s-4.8-19.4-9-23.5c-4.2-4.1-10.9-4-15,0.2
	C198.9,483.1,199,489.8,203.2,493.9L203.2,493.9z"/>
<path class="st9" d="M192.1,542.9c5.2,2.6,25.1,0.8,25.1,0.8s-10.4-17.1-15.6-19.7c-5.2-2.6-11.6-0.5-14.2,4.7
	C184.8,533.9,186.9,540.2,192.1,542.9L192.1,542.9L192.1,542.9z"/>
<path class="st9" d="M187.9,591.9c4.7,3.5,24.7,5.1,24.7,5.1s-7.3-18.6-12-22.1c-4.5-3.7-11.2-3-14.9,1.5c-3.7,4.5-3,11.2,1.5,14.9
	C187.4,591.6,187.6,591.8,187.9,591.9L187.9,591.9z"/>
<path class="st6" d="M183.6,618.5c0,0,17.1-3.4,21.7-7.9s25.1-12.5,27.4-6.8s30.8,24.9,11.4,28.3s-45.6,4.5-51.3,2.3
	S183.6,618.5,183.6,618.5z"/>
<path class="st7" d="M244,630c-19.4,3.4-45.6,4.5-51.3,2.3c-4.3-1.7-7.4-10-8.6-13.9l-0.6,0.1c0,0,3.4,13.6,9.1,15.9
	s31.9,1.1,51.3-2.3c5.6-1,7.2-3.3,6.6-6.2C250.1,627.8,248.2,629.2,244,630z"/>
<path class="st0" d="M1075.7,75v193.8c0,32.1-39.7,47.6-61.2,23.7l-0.5-0.6c-6.9-7.8-16.4-17.2-26-13.1c-3,1.3-5.2,3.7-7.9,5.5
	c1.9,4.2,3.6,8.6,4.9,13c8.2,27.3,1.8,56.8-7,84S958,435.5,956.5,464c-0.7,13.7,0.8,27.4,2.4,41c3,25.9,6.1,52.2,16.9,75.9
	c5.9,13,14.3,26.1,12.5,40.2c-46.6,2.1-93.2-3.9-137.8-17.5c30.9-31.1,30.8-80.4,28.8-124.1c-1.6-35.2-3.3-70.5-5-105.7
	c-0.5-10.3-1.1-21-5.8-30.2c-6.4-12.5-19.7-20.4-33.4-23.5s-28-2.3-42.1-1.4c-1-5.5,0-11.2,2.9-16c21.9,9.5,45.4,15,69.3,16.2
	c3,0.1,6.4,0.1,8.6-1.9s2.6-5.4,2.7-8.4c0.9-17.5-0.7-35-4.7-52.1c-0.8,0.2-1.5,0.4-2.3,0.6c-11.8,3.6-22.4,12.4-34.7,11.4
	c-17.1-1.3-27.3-20.5-43.4-26.4c-12.4-4.5-26-0.5-38.9,1.8s-28.3,2.2-36.8-7.9c-10.7-12.7-4-32.8-11-47.9
	c-9.9-21.5-39.8-21.9-63.3-19c9.4-14.2,23.4-24.7,39.7-29.9c-8.3-14.9-37.6-14.3-37.4-31.4c0.1-6.6,5.3-11.9,10.2-16.4l22-20.1
	L637,57c-8.7-3.3-18.5-7.6-21.4-16.5c-2.8-8.7,2.3-18,8.7-24.5l0.2-0.2C634.8,5.6,648.8-0.1,663.3,0h337.4
	C1042.1,0,1075.7,33.6,1075.7,75z"/>
<polygon class="st10" points="384.5,344.6 384.4,348.2 383.6,344.7 "/>
<polygon class="st11" points="384.5,344.6 384.4,348.2 383.6,344.7 "/>
<g>
	<g>
		<path class="st12" d="M433.2,651.7l153.6-15.8l1.9,30.2l-70.2,7c-4.8,0.4-9.7,0-14.4-1.1l-71-18.3c-0.5-0.1-0.9-0.7-0.7-1.2
			C432.5,652,432.8,651.7,433.2,651.7z"/>
		<path class="st12" d="M556.8,481.1l158.6-2.4c8.5,0.9,14.7,8.5,13.8,17c0,0.1,0,0.2,0,0.3l-18,149.8c-0.9,7.4-7,13.2-14.4,13.6
			l-162.2,10c-8.5,0.5-15.9-6-16.4-14.5c-0.1-1.1,0-2.1,0.1-3.2l21.5-157.5C541.1,486,548.6,480.2,556.8,481.1z"/>
	</g>
	<g>
		<path class="st7" d="M432.6,651.7l153.6-15.8l1.9,30.2l-70.2,7c-4.8,0.4-9.7,0-14.4-1.1l-71-18.3c-0.5-0.1-0.9-0.7-0.7-1.2
			C431.8,652,432.2,651.7,432.6,651.7z"/>
		<path class="st12" d="M432.6,651l154.8-15.8l1.9,30.2l-70.2,5.7c-4.8,0.4-9.7,0-14.4-1.1L432.4,653c-0.5-0.1-0.9-0.7-0.7-1.2
			C431.8,651.4,432.1,651.1,432.6,651z"/>
		<path class="st13" d="M469.3,652.1l81.9-8.3l1,16l-37.1,3c-2.6,0.2-5.1,0-7.6-0.6l-38.2-9c-0.3-0.1-0.5-0.4-0.4-0.6
			C468.9,652.3,469.1,652.2,469.3,652.1z"/>
		<path class="st7" d="M556.1,481.1l158.6-2.4c8.5,0.9,14.7,8.5,13.8,17c0,0.1,0,0.2,0,0.3l-18,149.8c-0.9,7.4-7,13.2-14.4,13.6
			l-162.2,10c-8.5,0.5-15.9-6-16.4-14.5c-0.1-1.1,0-2.1,0.1-3.2l21.5-157.5C540.5,486,547.9,480.2,556.1,481.1z"/>
		<path class="st12" d="M557.4,481.1l158.6-2.4c8.5,0.9,14.7,8.4,13.9,16.9c0,0.1,0,0.2,0,0.3l-18,149.8c-0.9,7.4-7,13.2-14.4,13.6
			l-162.2,10c-8.5,0.5-15.9-6-16.4-14.5c-0.1-1.1,0-2.1,0.1-3.2l21.5-157.5C541.7,486,549.1,480.3,557.4,481.1z"/>
		<circle class="st13" cx="635" cy="566.2" r="7.6"/>
		<circle class="st7" cx="497.9" cy="669.9" r="0.9"/>
	</g>
</g>
<path class="st6" d="M665.4,639.5c0,0,34.4-6.9,43.6-16.1s50.5-25.3,55.1-13.8s62,50.5,23,57.4s-91.8,9.2-103.3,4.6
	S665.4,639.5,665.4,639.5z"/>
<path class="st7" d="M787.1,662.8c-39,6.9-91.8,9.2-103.3,4.6c-8.7-3.5-14.8-20.3-17.2-28.1l-1.2,0.2c0,0,6.9,27.5,18.4,32.1
	s64.3,2.3,103.3-4.6c11.3-2,14.5-6.7,13.3-12.6C799.4,658.3,795.5,661.3,787.1,662.8z"/>
</svg>
