<?xml version="1.0" encoding="utf-8"?>
<!-- Generator: Adobe Illustrator 22.1.0, SVG Export Plug-In . SVG Version: 6.00 Build 0)  -->
<svg version="1.1" id="Layer_1" xmlns="http://www.w3.org/2000/svg" xmlns:xlink="http://www.w3.org/1999/xlink" x="0px" y="0px"
	 viewBox="0 0 192.8 84" style="enable-background:new 0 0 192.8 84;" xml:space="preserve">
<style type="text/css">
	.st0{fill:#CC2131;}
</style>
<g>
	<path d="M57.5,21.5v10.4h9.1v29.4h11.9V31.9h9.1V21.5H57.5z M113.2,45.4c4.6-1.6,7.4-5.8,7.4-11.3c0-3.7-1.1-6.7-3.3-8.9
		c-2.5-2.5-6.2-3.8-10.9-3.8H90.8v39.8h11.9V49.4l7.6,11.9h15C125.4,61.3,113.2,45.4,113.2,45.4z M102.7,31.2c1.5,0,3.6,0.2,4.7,1.2
		c0.5,0.5,0.8,1.3,0.8,2.3c0,2.5-1.6,3.5-5.5,3.6L102.7,31.2L102.7,31.2z M139.1,61.3V21.5h-11.8v39.8H139.1z M171,39.8l13.2-18.3
		h-14.6l-5.5,8.4l-4.7-8.4h-14.6l12.2,18.2L141,61.3h14.5l8.4-11.7l6.6,11.7h14.3L171,39.8L171,39.8z M42.4,21.5v39.8h11.9V21.5
		H42.4z"/>
	<path class="st0" d="M48.3,19c4.1,0,7.5-3.4,7.5-7.5c0-4.1-3.4-7.5-7.5-7.5l0,0c-4.1,0-7.5,3.4-7.5,7.5C40.8,15.7,44.2,19,48.3,19z
		 M133.2,78.7c4.1,0,7.5-3.3,7.5-7.5c0-4.1-3.3-7.5-7.5-7.5c0,0,0,0,0,0c-4.1,0-7.5,3.4-7.5,7.5C125.7,75.3,129.1,78.7,133.2,78.7z"
		/>
	<path d="M32.5,45.6c-1.8,2.9-5.2,4.8-8.8,4.8c-5,0-8.7-4.1-8.7-9.1c0-5,3.7-9.1,8.7-9.1c3.5,0,7,1.9,8.8,4.8L38.7,27
		c-3.8-4-9.1-6.4-15-6.4c-11.5,0-20.9,9.3-20.9,20.9c0,11.5,9.3,20.9,20.9,20.9c5.9,0,11.2-2.5,15-6.4
		C38.7,55.8,32.5,45.6,32.5,45.6z M186.7,23.1c0-0.9,0.7-1.6,1.6-1.6c0.9,0,1.6,0.7,1.6,1.6c0,0.9-0.8,1.6-1.7,1.5
		C187.4,24.6,186.7,23.9,186.7,23.1z M188.3,24.4c0.8,0,1.4-0.6,1.4-1.4c0-0.8-0.6-1.4-1.4-1.4s-1.4,0.6-1.4,1.4
		C186.9,23.8,187.6,24.4,188.3,24.4z M188.6,23.1c0.2,0,0.4-0.1,0.4-0.4c0-0.4-0.4-0.5-0.8-0.5h-0.6v1.8h0.3v-0.7h0.3
		c0.3,0,0.4,0.1,0.4,0.5c0,0.1,0,0.2,0,0.2h0.3c0,0,0-0.2,0-0.3C189,23.3,188.9,23.2,188.6,23.1L188.6,23.1z M188,23v-0.6h0.3
		c0.3,0,0.4,0.1,0.4,0.3c0,0.2-0.2,0.3-0.4,0.3H188z"/>
</g>
</svg>
