<?xml version="1.0" encoding="utf-8"?>
<!-- Generator: Adobe Illustrator 22.1.0, SVG Export Plug-In . SVG Version: 6.00 Build 0)  -->
<svg version="1.1" id="e6c7a302-1d79-4c46-b758-a00a31f9e26b"
	 xmlns="http://www.w3.org/2000/svg" xmlns:xlink="http://www.w3.org/1999/xlink" x="0px" y="0px" viewBox="0 0 665.7 752.7"
	 style="enable-background:new 0 0 665.7 752.7;" xml:space="preserve">
<style type="text/css">
	.st0{fill:url(#SVGID_1_);}
	.st1{fill:#FFFFFF;}
	.st2{opacity:0.6;}
	.st3{fill:#F55F44;}
	.st4{fill:url(#SVGID_2_);}
	.st5{fill:url(#SVGID_3_);}
	.st6{fill:#47E6B1;}
	.st7{opacity:0.25;fill:#535461;enable-background:new    ;}
	.st8{fill:none;stroke:url(#SVGID_4_);stroke-width:2;stroke-miterlimit:10;}
	.st9{fill:none;stroke:#535461;stroke-width:2;stroke-miterlimit:10;}
	.st10{fill:none;stroke:url(#SVGID_5_);stroke-width:2;stroke-miterlimit:10;}
	.st11{fill:none;stroke:url(#SVGID_6_);stroke-width:2;stroke-miterlimit:10;}
	.st12{opacity:0.7;}
	.st13{fill:url(#SVGID_7_);}
	.st14{fill:#535461;}
	.st15{opacity:0.1;fill:#FFFFFF;enable-background:new    ;}
	.st16{fill:#4D8AF0;}
	.st17{fill:#3AD29F;}
	.st18{fill:url(#SVGID_8_);}
	.st19{fill:#EEEEEE;}
	.st20{fill:#00C9B6;}
</style>
<title>new message</title>
<linearGradient id="SVGID_1_" gradientUnits="userSpaceOnUse" x1="-705.6633" y1="360.1336" x2="-705.6633" y2="424.5136" gradientTransform="matrix(-0.9583 0.2857 -0.2857 -0.9583 -255.7519 773.4091)">
	<stop  offset="0" style="stop-color:#808080;stop-opacity:0.25"/>
	<stop  offset="0.54" style="stop-color:#808080;stop-opacity:0.12"/>
	<stop  offset="1" style="stop-color:#808080;stop-opacity:0.1"/>
</linearGradient>
<polygon class="st0" points="249,180 349.4,150 367.8,211.7 267.4,241.6 "/>
<rect x="257.2" y="165.4" transform="matrix(0.9583 -0.2857 0.2857 0.9583 -43.0117 96.0781)" class="st1" width="101.2" height="60.1"/>
<g class="st2">
	
		<rect x="257.3" y="182.1" transform="matrix(0.9583 -0.2857 0.2857 0.9583 -42.3991 83.141)" class="st3" width="12.9" height="9.5"/>
	
		<rect x="272.9" y="197.9" transform="matrix(0.9583 -0.2857 0.2857 0.9583 -44.589 93.3422)" class="st3" width="49.4" height="3.1"/>
	
		<rect x="288.1" y="203.5" transform="matrix(0.9583 -0.2857 0.2857 0.9583 -45.6635 95.9707)" class="st3" width="36" height="2.1"/>
</g>
<linearGradient id="SVGID_2_" gradientUnits="userSpaceOnUse" x1="-450.5723" y1="479.0129" x2="-450.5723" y2="543.3929" gradientTransform="matrix(-0.9816 -0.1912 0.1912 -0.9816 -270.8926 689.4423)">
	<stop  offset="0" style="stop-color:#808080;stop-opacity:0.25"/>
	<stop  offset="0.54" style="stop-color:#808080;stop-opacity:0.12"/>
	<stop  offset="1" style="stop-color:#808080;stop-opacity:0.1"/>
</linearGradient>
<polygon class="st4" points="211.5,295.4 223.8,232.2 326.7,252.2 314.3,315.4 "/>
<g class="st2">
	
		<rect x="228.8" y="238.8" transform="matrix(0.1912 -0.9816 0.9816 0.1912 -51.77 427.655)" class="st3" width="9.5" height="12.9"/>
	
		<rect x="256.2" y="247.4" transform="matrix(0.1912 -0.9816 0.9816 0.1912 -58.6027 473.1054)" class="st3" width="3.1" height="49.4"/>
	
		<rect x="261.9" y="262.5" transform="matrix(0.1912 -0.9816 0.9816 0.1912 -62.6102 484.9743)" class="st3" width="2.1" height="36.1"/>
</g>
<linearGradient id="SVGID_3_" gradientUnits="userSpaceOnUse" x1="-196.2619" y1="248.2201" x2="-196.2619" y2="312.6001" gradientTransform="matrix(-0.3979 -0.9174 0.9174 -0.3979 -44.4726 168.1275)">
	<stop  offset="0" style="stop-color:#808080;stop-opacity:0.25"/>
	<stop  offset="0.54" style="stop-color:#808080;stop-opacity:0.12"/>
	<stop  offset="1" style="stop-color:#808080;stop-opacity:0.1"/>
</linearGradient>
<polygon class="st5" points="240.5,201.3 299.6,175.7 341.3,271.8 282.2,297.5 "/>
<rect x="261.1" y="185.3" transform="matrix(0.9174 -0.3979 0.3979 0.9174 -69.8381 135.3627)" class="st1" width="60.1" height="101.2"/>
<g class="st2">
	
		<rect x="289.6" y="184.8" transform="matrix(0.9174 -0.3979 0.3979 0.9174 -51.7803 132.9197)" class="st6" width="9.5" height="12.9"/>
	
		<rect x="284.3" y="201.6" transform="matrix(0.9174 -0.3979 0.3979 0.9174 -66.4587 132.4412)" class="st6" width="3.1" height="49.4"/>
	
		<rect x="280.9" y="217.3" transform="matrix(0.9174 -0.3979 0.3979 0.9174 -70.3671 131.6129)" class="st6" width="2.1" height="36"/>
</g>
<circle class="st7" cx="168.2" cy="112.8" r="5.5"/>
<circle class="st7" cx="552.6" cy="540.4" r="5.5"/>
<circle class="st7" cx="274.6" cy="387.5" r="5.5"/>
<circle class="st7" cx="603.4" cy="437" r="5.5"/>
<circle class="st7" cx="554.4" cy="150" r="5.5"/>
<polygon class="st7" points="396.4,34.1 391.6,34.1 391.6,29.2 389.6,29.2 389.6,34.1 384.7,34.1 384.7,36 389.6,36 389.6,40.9 
	391.6,40.9 391.6,36 396.4,36 "/>
<polygon class="st7" points="58,211.4 53.2,211.4 53.2,206.5 51.2,206.5 51.2,211.4 46.3,211.4 46.3,213.4 51.2,213.4 51.2,218.2 
	53.2,218.2 53.2,213.4 58,213.4 "/>
<polygon class="st7" points="179.9,550.7 175,550.7 175,545.8 173,545.8 173,550.7 168.2,550.7 168.2,552.7 173,552.7 173,557.5 
	175,557.5 175,552.7 179.9,552.7 "/>
<polygon class="st7" points="103.5,424 98.6,424 98.6,419.1 96.6,419.1 96.6,424 91.7,424 91.7,426 96.6,426 96.6,430.8 98.6,430.8 
	98.6,426 103.5,426 "/>
<polygon class="st7" points="213.4,123.5 208.5,123.5 208.5,118.6 206.5,118.6 206.5,123.5 201.7,123.5 201.7,125.5 206.5,125.5 
	206.5,130.3 208.5,130.3 208.5,125.5 213.4,125.5 "/>
<polygon class="st7" points="373.7,486.8 368.8,486.8 368.8,481.9 366.8,481.9 366.8,486.8 362,486.8 362,488.8 366.8,488.8 
	366.8,493.6 368.8,493.6 368.8,488.8 373.7,488.8 "/>
<polygon class="st7" points="615.4,288.3 610.5,288.3 610.5,283.4 608.5,283.4 608.5,288.3 603.6,288.3 603.6,290.2 608.5,290.2 
	608.5,295.1 610.5,295.1 610.5,290.2 615.4,290.2 "/>
<polygon class="st7" points="470.7,117.6 465.8,117.6 465.8,112.8 463.8,112.8 463.8,117.6 459,117.6 459,119.6 463.8,119.6 
	463.8,124.5 465.8,124.5 465.8,119.6 470.7,119.6 "/>
<linearGradient id="SVGID_4_" gradientUnits="userSpaceOnUse" x1="355.8176" y1="184.6447" x2="458.9149" y2="184.6447" gradientTransform="matrix(1 0 0 -1 -166.4 678.36)">
	<stop  offset="0" style="stop-color:#808080;stop-opacity:0.25"/>
	<stop  offset="0.54" style="stop-color:#808080;stop-opacity:0.12"/>
	<stop  offset="1" style="stop-color:#808080;stop-opacity:0.1"/>
</linearGradient>
<path class="st8" d="M191.5,395.7c-3.5,11.4,1.8,24.8,12,30.8c4.3,2.5,9.2,3.8,13.4,6.5c9,5.9,12.6,17.2,15.6,27.6
	c3.4,12,6.8,24.6,3.7,36.6c-2,7.7-6.5,14.4-9,21.9c-2.1,6.3-2.9,12.9-2.2,19.5c0.4,3.5,1.2,7.1,3.6,9.7c3.5,3.7,9,4.3,14,5.2
	c21.5,4.1,39.7,18.2,49,38"/>
<path class="st9" d="M192.6,395.7c-3.5,11.4,1.8,24.8,12,30.8c4.3,2.5,9.2,3.8,13.4,6.5c9,5.9,12.6,17.2,15.6,27.6
	c3.4,12,6.8,24.6,3.7,36.6c-2,7.7-6.5,14.4-9,21.9c-2.1,6.3-2.9,12.9-2.2,19.5c0.4,3.5,1.2,7.1,3.6,9.7c3.5,3.7,9,4.3,14,5.2
	c21.5,4.1,39.7,18.2,49,38"/>
<linearGradient id="SVGID_5_" gradientUnits="userSpaceOnUse" x1="472.0593" y1="226.9026" x2="504.0225" y2="226.9026" gradientTransform="matrix(1 0 0 -1 -166.4 678.36)">
	<stop  offset="0" style="stop-color:#808080;stop-opacity:0.25"/>
	<stop  offset="0.54" style="stop-color:#808080;stop-opacity:0.12"/>
	<stop  offset="1" style="stop-color:#808080;stop-opacity:0.1"/>
</linearGradient>
<path class="st10" d="M325,310.9c-8.6,12-17.6,25-18.3,39.8c-1.1,22.7,17,41.3,25.2,62.6c7.1,18.9,6.2,39.9-2.5,58.2
	c-4,8.2-9.6,16.3-8.9,25.4c0.4,5.5,3.2,10.6,5.4,15.7c11.1,25.9,9.2,55.5-5.1,79.7"/>
<path class="st9" d="M326.1,310.9c-8.6,12-17.6,25-18.3,39.8c-1.1,22.7,17,41.3,25.2,62.6c7.1,18.9,6.2,39.9-2.5,58.2
	c-4,8.2-9.6,16.3-8.9,25.4c0.4,5.5,3.2,10.6,5.4,15.7c11.1,25.9,9.2,55.5-5.1,79.7"/>
<linearGradient id="SVGID_6_" gradientUnits="userSpaceOnUse" x1="587.2798" y1="169.3206" x2="618.1707" y2="169.3206" gradientTransform="matrix(1 0 0 -1 -166.4 678.36)">
	<stop  offset="0" style="stop-color:#808080;stop-opacity:0.25"/>
	<stop  offset="0.54" style="stop-color:#808080;stop-opacity:0.12"/>
	<stop  offset="1" style="stop-color:#808080;stop-opacity:0.1"/>
</linearGradient>
<path class="st11" d="M446.2,419.1l4.2,34c0.5,4.5,1,9.5-1.4,13.3c-2.3,3.7-6.6,5.4-10,8.1c-11,8.8-10,25.8-6.2,39.5
	s9.3,28.3,4,41.4c-2.2,5.4-6,10-8.9,15c-4.9,8.7-6.8,18.7-5.5,28.6"/>
<path class="st9" d="M447.2,419.1l4.2,34c0.5,4.5,1,9.5-1.4,13.3c-2.3,3.7-6.6,5.4-10,8.1c-11,8.8-10,25.8-6.2,39.5s9.3,28.3,4,41.4
	c-2.2,5.4-6,10-8.9,15c-4.9,8.7-6.8,18.7-5.5,28.6"/>
<g class="st12">
	
		<linearGradient id="SVGID_7_" gradientUnits="userSpaceOnUse" x1="488.6598" y1="245.4099" x2="488.6598" y2="612.9799" gradientTransform="matrix(1 0 0 -1 -166.4 678.36)">
		<stop  offset="0" style="stop-color:#808080;stop-opacity:0.25"/>
		<stop  offset="0.54" style="stop-color:#808080;stop-opacity:0.12"/>
		<stop  offset="1" style="stop-color:#808080;stop-opacity:0.1"/>
	</linearGradient>
	<path class="st13" d="M554.4,279.2c0-55.7-45.3-100.9-101-100.8c-10.6,0-21,1.7-31.1,4.9c0.8-5.7,1.3-11.4,1.3-17.1
		c0.3-55.7-44.5-101.1-100.2-101.5c-53.4-0.3-97.7,41-101.2,94.2c-53-17.2-109.9,11.8-127.2,64.8c-3.3,10.1-4.9,20.6-4.9,31.1
		c0,50.6,37.3,122.6,85.9,135.3l7.5,4.3l-4.1,14.1h24.3l-5.3-14.1l7.5-4.3c37.5-9.9,68.3-55,80.4-98.4c6.6,4.4,13.9,7.7,21.5,9.8
		l7.5,4.3l-4.1,14.1h24.3l-5.3-14.1l7.5-4.3c5.6-1.5,11-3.7,16-6.5c6.5,48.6,41,108.1,84.7,119.5l7.5,4.3L442,433h24.3l-5.3-14.1
		l7.5-4.3C517.2,401.8,554.4,329.8,554.4,279.2z"/>
</g>
<polygon class="st3" points="207.5,403.4 184,403.4 188.1,389.3 202.2,389.3 "/>
<path class="st3" d="M292.8,254.7c0,53.9-43.7,132.8-97.6,132.8s-97.6-79-97.6-132.8c0-53.9,43.7-97.6,97.6-97.5
	C249.1,157.2,292.7,200.8,292.8,254.7L292.8,254.7z"/>
<polygon class="st14" points="202.2,389.9 188.1,389.9 179.9,385.2 210.5,385.2 "/>
<path class="st15" d="M159.9,178.9c0,0-41.1,22.3-47,67"/>
<polygon class="st16" points="335.1,317.6 311.6,317.6 315.7,303.5 329.8,303.5 "/>
<path class="st16" d="M420.4,168.9c0,53.9-43.7,132.9-97.6,132.9s-97.6-78.9-97.6-132.9c0-53.9,43.7-97.6,97.6-97.6
	S420.4,115,420.4,168.9L420.4,168.9z"/>
<polygon class="st14" points="329.8,304.1 315.7,304.1 307.5,299.4 338.1,299.4 "/>
<path class="st15" d="M287.5,93.1c0,0-41.1,22.3-47,67"/>
<polygon class="st17" points="461.7,427 438.2,427 442.3,412.9 456.4,412.9 "/>
<path class="st17" d="M546.9,278.3c0,53.9-43.7,132.8-97.6,132.8s-97.6-79-97.6-132.8c0-53.9,43.7-97.6,97.6-97.6
	S546.9,224.4,546.9,278.3z"/>
<polygon class="st14" points="456.4,413.5 442.3,413.5 434,408.8 464.6,408.8 "/>
<path class="st15" d="M414.1,202.4c0,0-41.2,22.3-47,67"/>
<linearGradient id="SVGID_8_" gradientUnits="userSpaceOnUse" x1="-641.3176" y1="-47.3733" x2="-641.3176" y2="118.4767" gradientTransform="matrix(-1 5.000000e-02 -5.000000e-02 -1 -287.5575 732.2525)">
	<stop  offset="0" style="stop-color:#808080;stop-opacity:0.25"/>
	<stop  offset="0.54" style="stop-color:#808080;stop-opacity:0.12"/>
	<stop  offset="1" style="stop-color:#808080;stop-opacity:0.1"/>
</linearGradient>
<polygon class="st18" points="212.9,588.5 482.8,575 491.1,740.8 221.2,754.3 "/>
<rect x="220.3" y="584.3" transform="matrix(0.9987 -5.111586e-02 5.111586e-02 0.9987 -33.3627 18.7906)" class="st19" width="260.7" height="154.8"/>
<rect x="229" y="601.4" transform="matrix(0.9987 -5.111573e-02 5.111573e-02 0.9987 -31.0469 13.3547)" class="st20" width="33.2" height="24.5"/>
<rect x="259" y="661.9" transform="matrix(0.9987 -5.111573e-02 5.111573e-02 0.9987 -33.614 17.3626)" class="st20" width="127.4" height="8"/>
<rect x="294.4" y="680.9" transform="matrix(0.9987 -5.111573e-02 5.111573e-02 0.9987 -34.4933 18.3142)" class="st20" width="92.9" height="5.3"/>
</svg>
