<svg id="Layer_1" data-name="Layer 1" xmlns="http://www.w3.org/2000/svg" viewBox="0 0 239 281"><title>Artboard 1</title><path d="M164.17,80.3v61.12a44.3,44.3,0,0,1-9.54,27.51,45.56,45.56,0,0,1-3.39,3.82,44.45,44.45,0,0,1-62.86.14l-.14-.14a45.56,45.56,0,0,1-3.39-3.82,44.3,44.3,0,0,1-9.54-27.51V80.3A44.17,44.17,0,0,1,85.58,51.88a41.13,41.13,0,0,1,3.81-4,44.4,44.4,0,0,1,60.75,0c.36.32.71.67,1.06,1,1,1,1.87,2,2.75,3A44.17,44.17,0,0,1,164.17,80.3Z" style="fill:#dfe6f5"/><path d="M164.17,80.3v61.12a44.3,44.3,0,0,1-9.54,27.51,45.56,45.56,0,0,1-3.39,3.82,44.45,44.45,0,0,1-62.86.14l-.14-.14a45.56,45.56,0,0,1-3.39-3.82,44.3,44.3,0,0,1-9.54-27.51V80.3A44.17,44.17,0,0,1,85.58,51.88a41.13,41.13,0,0,1,3.81-4,44.4,44.4,0,0,1,60.75,0c.36.32.71.67,1.06,1,1,1,1.87,2,2.75,3A44.17,44.17,0,0,1,164.17,80.3Z" style="opacity:0.10000000149011612;isolation:isolate"/><path d="M166,80.3v61.12a44.3,44.3,0,0,1-9.54,27.51,45.56,45.56,0,0,1-3.39,3.82,44.45,44.45,0,0,1-62.86.14l-.14-.14a45.56,45.56,0,0,1-3.39-3.82,44.25,44.25,0,0,1-9.6-27.51V80.3A44.17,44.17,0,0,1,87.38,51.88a41.13,41.13,0,0,1,3.81-4,44.4,44.4,0,0,1,60.75,0c.36.32.71.67,1.06,1,1,1,1.87,2,2.75,3A44.18,44.18,0,0,1,166,80.3Z" style="fill:#dfe6f5"/><circle cx="102.12" cy="49.74" r="2.78" style="opacity:0.10000000149011612;isolation:isolate"/><circle cx="102.12" cy="59" r="2.78" style="opacity:0.10000000149011612;isolation:isolate"/><circle cx="102.12" cy="68.26" r="2.78" style="opacity:0.10000000149011612;isolation:isolate"/><circle cx="102.12" cy="77.52" r="2.78" style="opacity:0.10000000149011612;isolation:isolate"/><circle cx="102.12" cy="86.78" r="2.78" style="opacity:0.10000000149011612;isolation:isolate"/><circle cx="102.12" cy="96.04" r="2.78" style="opacity:0.10000000149011612;isolation:isolate"/><circle cx="102.12" cy="105.3" r="2.78" style="opacity:0.10000000149011612;isolation:isolate"/><circle cx="102.12" cy="114.57" r="2.78" style="opacity:0.10000000149011612;isolation:isolate"/><circle cx="102.12" cy="123.83" r="2.78" style="opacity:0.10000000149011612;isolation:isolate"/><circle cx="102.12" cy="133.09" r="2.78" style="opacity:0.10000000149011612;isolation:isolate"/><circle cx="102.12" cy="142.35" r="2.78" style="opacity:0.10000000149011612;isolation:isolate"/><circle cx="102.12" cy="151.61" r="2.78" style="opacity:0.10000000149011612;isolation:isolate"/><circle cx="102.12" cy="160.87" r="2.78" style="opacity:0.10000000149011612;isolation:isolate"/><circle cx="102.12" cy="170.13" r="2.78" style="opacity:0.10000000149011612;isolation:isolate"/><path d="M91.94,49.74a2.78,2.78,0,0,1-4.55,2.14,41.13,41.13,0,0,1,3.81-4A2.73,2.73,0,0,1,91.94,49.74Z" style="opacity:0.10000000149011612;isolation:isolate"/><circle cx="89.16" cy="59" r="2.78" style="opacity:0.10000000149011612;isolation:isolate"/><circle cx="89.16" cy="68.26" r="2.78" style="opacity:0.10000000149011612;isolation:isolate"/><circle cx="89.16" cy="77.52" r="2.78" style="opacity:0.10000000149011612;isolation:isolate"/><circle cx="89.16" cy="86.78" r="2.78" style="opacity:0.10000000149011612;isolation:isolate"/><circle cx="89.16" cy="96.04" r="2.78" style="opacity:0.10000000149011612;isolation:isolate"/><circle cx="89.16" cy="105.3" r="2.78" style="opacity:0.10000000149011612;isolation:isolate"/><circle cx="89.16" cy="114.57" r="2.78" style="opacity:0.10000000149011612;isolation:isolate"/><circle cx="89.16" cy="123.83" r="2.78" style="opacity:0.10000000149011612;isolation:isolate"/><circle cx="89.16" cy="133.09" r="2.78" style="opacity:0.10000000149011612;isolation:isolate"/><circle cx="89.16" cy="142.35" r="2.78" style="opacity:0.10000000149011612;isolation:isolate"/><circle cx="89.16" cy="151.61" r="2.78" style="opacity:0.10000000149011612;isolation:isolate"/><circle cx="89.16" cy="160.87" r="2.78" style="opacity:0.10000000149011612;isolation:isolate"/><path d="M91.94,170.13a2.78,2.78,0,0,1-1.89,2.63,45.56,45.56,0,0,1-3.39-3.82,2.77,2.77,0,0,1,5.28,1.19Z" style="opacity:0.10000000149011612;isolation:isolate"/><circle cx="115.09" cy="49.74" r="2.78" style="opacity:0.10000000149011612;isolation:isolate"/><circle cx="115.09" cy="59" r="2.78" style="opacity:0.10000000149011612;isolation:isolate"/><circle cx="115.09" cy="68.26" r="2.78" style="opacity:0.10000000149011612;isolation:isolate"/><circle cx="115.09" cy="77.52" r="2.78" style="opacity:0.10000000149011612;isolation:isolate"/><circle cx="115.09" cy="86.78" r="2.78" style="opacity:0.10000000149011612;isolation:isolate"/><circle cx="115.09" cy="96.04" r="2.78" style="opacity:0.10000000149011612;isolation:isolate"/><circle cx="115.09" cy="105.3" r="2.78" style="opacity:0.10000000149011612;isolation:isolate"/><circle cx="115.09" cy="114.57" r="2.78" style="opacity:0.10000000149011612;isolation:isolate"/><circle cx="115.09" cy="123.83" r="2.78" style="opacity:0.10000000149011612;isolation:isolate"/><circle cx="115.09" cy="133.09" r="2.78" style="opacity:0.10000000149011612;isolation:isolate"/><circle cx="115.09" cy="142.35" r="2.78" style="opacity:0.10000000149011612;isolation:isolate"/><circle cx="115.09" cy="151.61" r="2.78" style="opacity:0.10000000149011612;isolation:isolate"/><circle cx="115.09" cy="160.87" r="2.78" style="opacity:0.10000000149011612;isolation:isolate"/><circle cx="115.09" cy="170.13" r="2.78" style="opacity:0.10000000149011612;isolation:isolate"/><circle cx="128.05" cy="49.74" r="2.78" style="opacity:0.10000000149011612;isolation:isolate"/><circle cx="128.05" cy="59" r="2.78" style="opacity:0.10000000149011612;isolation:isolate"/><circle cx="128.05" cy="68.26" r="2.78" style="opacity:0.10000000149011612;isolation:isolate"/><circle cx="128.05" cy="77.52" r="2.78" style="opacity:0.10000000149011612;isolation:isolate"/><circle cx="128.05" cy="86.78" r="2.78" style="opacity:0.10000000149011612;isolation:isolate"/><circle cx="128.05" cy="96.04" r="2.78" style="opacity:0.10000000149011612;isolation:isolate"/><circle cx="128.05" cy="105.3" r="2.78" style="opacity:0.10000000149011612;isolation:isolate"/><circle cx="128.05" cy="114.57" r="2.78" style="opacity:0.10000000149011612;isolation:isolate"/><circle cx="128.05" cy="123.83" r="2.78" style="opacity:0.10000000149011612;isolation:isolate"/><circle cx="128.05" cy="133.09" r="2.78" style="opacity:0.10000000149011612;isolation:isolate"/><circle cx="128.05" cy="142.35" r="2.78" style="opacity:0.10000000149011612;isolation:isolate"/><circle cx="128.05" cy="151.61" r="2.78" style="opacity:0.10000000149011612;isolation:isolate"/><circle cx="128.05" cy="160.87" r="2.78" style="opacity:0.10000000149011612;isolation:isolate"/><circle cx="128.05" cy="170.13" r="2.78" style="opacity:0.10000000149011612;isolation:isolate"/><circle cx="141.02" cy="49.74" r="2.78" style="opacity:0.10000000149011612;isolation:isolate"/><circle cx="141.02" cy="59" r="2.78" style="opacity:0.10000000149011612;isolation:isolate"/><circle cx="141.02" cy="68.26" r="2.78" style="opacity:0.10000000149011612;isolation:isolate"/><circle cx="141.02" cy="77.52" r="2.78" style="opacity:0.10000000149011612;isolation:isolate"/><circle cx="141.02" cy="86.78" r="2.78" style="opacity:0.10000000149011612;isolation:isolate"/><circle cx="141.02" cy="96.04" r="2.78" style="opacity:0.10000000149011612;isolation:isolate"/><circle cx="141.02" cy="105.3" r="2.78" style="opacity:0.10000000149011612;isolation:isolate"/><circle cx="141.02" cy="114.57" r="2.78" style="opacity:0.10000000149011612;isolation:isolate"/><circle cx="141.02" cy="123.83" r="2.78" style="opacity:0.10000000149011612;isolation:isolate"/><circle cx="141.02" cy="133.09" r="2.78" style="opacity:0.10000000149011612;isolation:isolate"/><circle cx="141.02" cy="142.35" r="2.78" style="opacity:0.10000000149011612;isolation:isolate"/><circle cx="141.02" cy="151.61" r="2.78" style="opacity:0.10000000149011612;isolation:isolate"/><circle cx="141.02" cy="160.87" r="2.78" style="opacity:0.10000000149011612;isolation:isolate"/><circle cx="141.02" cy="170.13" r="2.78" style="opacity:0.10000000149011612;isolation:isolate"/><path d="M155.76,51.88a2.78,2.78,0,0,1-3.91-.37,2.81,2.81,0,0,1-.64-1.77,2.73,2.73,0,0,1,.74-1.88c.36.32.71.67,1.06,1C154,49.84,154.88,50.84,155.76,51.88Z" style="opacity:0.10000000149011612;isolation:isolate"/><circle cx="153.98" cy="59" r="2.78" style="opacity:0.10000000149011612;isolation:isolate"/><circle cx="153.98" cy="68.26" r="2.78" style="opacity:0.10000000149011612;isolation:isolate"/><circle cx="153.98" cy="77.52" r="2.78" style="opacity:0.10000000149011612;isolation:isolate"/><circle cx="153.98" cy="86.78" r="2.78" style="opacity:0.10000000149011612;isolation:isolate"/><circle cx="153.98" cy="96.04" r="2.78" style="opacity:0.10000000149011612;isolation:isolate"/><circle cx="153.98" cy="105.3" r="2.78" style="opacity:0.10000000149011612;isolation:isolate"/><circle cx="153.98" cy="114.57" r="2.78" style="opacity:0.10000000149011612;isolation:isolate"/><circle cx="153.98" cy="123.83" r="2.78" style="opacity:0.10000000149011612;isolation:isolate"/><circle cx="153.98" cy="133.09" r="2.78" style="opacity:0.10000000149011612;isolation:isolate"/><circle cx="153.98" cy="142.35" r="2.78" style="opacity:0.10000000149011612;isolation:isolate"/><circle cx="153.98" cy="151.61" r="2.78" style="opacity:0.10000000149011612;isolation:isolate"/><circle cx="153.98" cy="160.87" r="2.78" style="opacity:0.10000000149011612;isolation:isolate"/><path d="M156.49,168.93a45.56,45.56,0,0,1-3.39,3.82,2.78,2.78,0,1,1,3.39-3.82Z" style="opacity:0.10000000149011612;isolation:isolate"/><rect x="113.24" y="136.79" width="12.96" height="124.09" rx="5.4" ry="5.4" style="fill:#54576b"/><rect x="75.27" y="244.21" width="88.9" height="16.67" rx="6.95" ry="6.95" style="fill:#54576b"/><rect x="113.24" y="136.79" width="12.96" height="124.09" rx="5.4" ry="5.4" style="opacity:0.10000000149011612;isolation:isolate"/><rect x="75.27" y="244.21" width="88.9" height="16.67" rx="6.95" ry="6.95" style="opacity:0.10000000149011612;isolation:isolate"/><rect x="115.09" y="136.79" width="12.96" height="124.09" rx="5.4" ry="5.4" style="fill:#54576b"/><rect x="77.12" y="244.21" width="88.9" height="16.67" rx="6.95" ry="6.95" style="fill:#54576b"/><path d="M198.77,147.29a87,87,0,0,1-158.1,0c-9.21-13.21-17.26-39.55-17.26-36.42a96.31,96.31,0,0,0,192.62.07v-.07C216,107.74,208,134.08,198.77,147.29Z" style="fill:#54576b"/><path d="M119.72,14.55a96.29,96.29,0,0,0-79,41.36,87.06,87.06,0,0,0-7.51,45.68,87,87,0,0,1,173.11,0,87.06,87.06,0,0,0-7.51-45.68A96.26,96.26,0,0,0,119.72,14.55Z" style="fill:#54576b"/><circle cx="121.57" cy="148.83" r="3.7" style="opacity:0.10000000149011612;isolation:isolate"/></svg>